<mxfile><diagram id="6IBkBBJ6PPpaDEPpR_CZ" name="Page-1"><mxGraphModel dx="2031" dy="1202" grid="0" gridSize="10" guides="1" tooltips="1" connect="1" arrows="1" fold="1" page="0" pageScale="1" pageWidth="850" pageHeight="1100" background="#ffffff" math="0" shadow="0"><root><mxCell id="0"/><mxCell id="1" parent="0"/><mxCell id="2" value="Headers.GameModel" style="swimlane;fontStyle=1;align=center;verticalAlign=top;childLayout=stackLayout;horizontal=1;startSize=26;horizontalStack=0;resizeParent=1;resizeParentMax=0;resizeLast=0;collapsible=1;marginBottom=0;strokeColor=#006EAF;fillColor=#1ba1e2;fontColor=#ffffff;" parent="1" vertex="1"><mxGeometry x="50" y="-120" width="230" height="298" as="geometry"/></mxCell><mxCell id="3" value="- board1: Headers.GameBoard&#10;- board2: Headers.GameBoard&#10;- ship1: Headers.Ship[]&#10;- ship2: Headers.Ship[]&#10;- player1: Headers.Player&#10;- player2: Headers.Player&#10;" style="text;strokeColor=#66B2FF;fillColor=none;align=left;verticalAlign=top;spacingLeft=4;spacingRight=4;overflow=hidden;rotatable=0;points=[[0,0.5],[1,0.5]];portConstraint=eastwest;fontColor=#000000;" parent="2" vertex="1"><mxGeometry y="26" width="230" height="92" as="geometry"/></mxCell><mxCell id="5" value="&lt;&lt;Constructor&gt;&gt;Model()&#10;+ getBoard1(): Headers.GameBoard&#10;+ getBoard2(): Headers.GameBoard&#10;+ setBoard1(x: int, y: int, val: int)&#10;+ setBoard2(x: int, y: int, val: int)&#10;+ getShip(id:int): Headers.Ship[]&#10;+ setShip(id:int, x:int, y: int, status: int)&#10;+ getPlayer(id:int)" style="text;strokeColor=#66B2FF;fillColor=none;align=left;verticalAlign=top;spacingLeft=4;spacingRight=4;overflow=hidden;rotatable=0;points=[[0,0.5],[1,0.5]];portConstraint=eastwest;fontColor=#000000;" parent="2" vertex="1"><mxGeometry y="118" width="230" height="180" as="geometry"/></mxCell><mxCell id="19" style="edgeStyle=orthogonalEdgeStyle;html=1;exitX=0.5;exitY=0;exitDx=0;exitDy=0;fontColor=#000000;strokeColor=#007FFF;entryX=0;entryY=0.5;entryDx=0;entryDy=0;" parent="1" source="6" target="5" edge="1"><mxGeometry relative="1" as="geometry"><mxPoint x="-75.44444444444434" y="97.25923665364576" as="targetPoint"/></mxGeometry></mxCell><mxCell id="6" value="Headers.GameView" style="swimlane;fontStyle=1;align=center;verticalAlign=top;childLayout=stackLayout;horizontal=1;startSize=26;horizontalStack=0;resizeParent=1;resizeParentMax=0;resizeLast=0;collapsible=1;marginBottom=0;strokeColor=#006EAF;fillColor=#1ba1e2;fontColor=#ffffff;" parent="1" vertex="1"><mxGeometry x="-200" y="250" width="250" height="152" as="geometry"/></mxCell><mxCell id="7" value="- model: Headers.GameModel" style="text;strokeColor=#66B2FF;fillColor=none;align=left;verticalAlign=top;spacingLeft=4;spacingRight=4;overflow=hidden;rotatable=0;points=[[0,0.5],[1,0.5]];portConstraint=eastwest;fontColor=#000000;" parent="6" vertex="1"><mxGeometry y="26" width="250" height="26" as="geometry"/></mxCell><mxCell id="9" value="&lt;&lt;Constructor&gt;&gt;View(model)&#10;+ displayShip(b: Headers.GameBoard, ship: Headers.Ship)&#10;+ showBoard(a: Headers.GameBoard, b: Headers.GameBoard)&#10;+ displayStatus(ship1: Headers.Ship[], ship2:Headers.Ship[])&#10;+ showFireResult(Headers.GameBoard, int, int)&#10;+ displayWin(p: Headers.Player)" style="text;strokeColor=#66B2FF;fillColor=none;align=left;verticalAlign=top;spacingLeft=4;spacingRight=4;overflow=hidden;rotatable=0;points=[[0,0.5],[1,0.5]];portConstraint=eastwest;fontColor=#000000;" parent="6" vertex="1"><mxGeometry y="52" width="250" height="100" as="geometry"/></mxCell><mxCell id="18" style="edgeStyle=orthogonalEdgeStyle;html=1;exitX=0.5;exitY=0;exitDx=0;exitDy=0;fontColor=#000000;strokeColor=#007FFF;entryX=1;entryY=0.5;entryDx=0;entryDy=0;" parent="1" source="10" target="5" edge="1"><mxGeometry relative="1" as="geometry"><mxPoint x="469" y="86.88888888888891" as="targetPoint"/></mxGeometry></mxCell><mxCell id="10" value="Headers.GameController" style="swimlane;fontStyle=1;align=center;verticalAlign=top;childLayout=stackLayout;horizontal=1;startSize=26;horizontalStack=0;resizeParent=1;resizeParentMax=0;resizeLast=0;collapsible=1;marginBottom=0;strokeColor=#006EAF;fillColor=#1ba1e2;fontColor=#ffffff;" parent="1" vertex="1"><mxGeometry x="280" y="259" width="380" height="202" as="geometry"/></mxCell><mxCell id="11" value="- model: Headers.GameModel&#10;- view: Headers.GameView" style="text;strokeColor=#66B2FF;fillColor=none;align=left;verticalAlign=top;spacingLeft=4;spacingRight=4;overflow=hidden;rotatable=0;points=[[0,0.5],[1,0.5]];portConstraint=eastwest;fontColor=#000000;" parent="10" vertex="1"><mxGeometry y="26" width="380" height="44" as="geometry"/></mxCell><mxCell id="13" value="&lt;&lt;Constructor&gt;&gt;Controller(model, view)&#10;+ mouseDragged(event: MouseEvent)&#10;+ mouseMoved(event: MouseEvent)&#10;+ autoSetupBattleShip(b: Headers.GameBoard, ship: Headers.Ship)&#10;+ setUpBattleShip(b: Headers.GameBoard, ship: Headers.Ship,x: int,y: int, horOrVer int)&#10;+ checkShip(b:Headers.GameBoard, ship: Headers.Ship)&#10;+ fire(b: Headers.GameBoard, x: int, y: int)&#10;+ checkWin(s1: ship[], s2:ship[]): Headers.Player" style="text;strokeColor=#66B2FF;fillColor=none;align=left;verticalAlign=top;spacingLeft=4;spacingRight=4;overflow=hidden;rotatable=0;points=[[0,0.5],[1,0.5]];portConstraint=eastwest;fontColor=#000000;" parent="10" vertex="1"><mxGeometry y="70" width="380" height="132" as="geometry"/></mxCell><mxCell id="16" style="edgeStyle=orthogonalEdgeStyle;html=1;exitX=0;exitY=0.5;exitDx=0;exitDy=0;fontColor=#000000;strokeColor=#007FFF;" parent="1" source="13" edge="1"><mxGeometry relative="1" as="geometry"><mxPoint x="48" y="325" as="targetPoint"/><Array as="points"><mxPoint x="165" y="395"/><mxPoint x="165" y="325"/></Array></mxGeometry></mxCell><mxCell id="34" style="edgeStyle=orthogonalEdgeStyle;html=1;exitX=0.5;exitY=0;exitDx=0;exitDy=0;fontColor=#000000;endArrow=diamond;endFill=0;strokeColor=#66B2FF;entryX=0;entryY=0.5;entryDx=0;entryDy=0;" edge="1" parent="1" source="21" target="3"><mxGeometry relative="1" as="geometry"><mxPoint x="-273" y="-38" as="targetPoint"/></mxGeometry></mxCell><mxCell id="21" value="Headers.GameBoard" style="swimlane;fontStyle=1;align=center;verticalAlign=top;childLayout=stackLayout;horizontal=1;startSize=26;horizontalStack=0;resizeParent=1;resizeParentMax=0;resizeLast=0;collapsible=1;marginBottom=0;fontColor=#ffffff;fillColor=#1ba1e2;strokeColor=#006EAF;" vertex="1" parent="1"><mxGeometry x="-367" y="532" width="186" height="123" as="geometry"/></mxCell><mxCell id="22" value="- grid: int[][]" style="text;strokeColor=#66B2FF;fillColor=none;align=left;verticalAlign=top;spacingLeft=4;spacingRight=4;overflow=hidden;rotatable=0;points=[[0,0.5],[1,0.5]];portConstraint=eastwest;fontColor=#000000;" vertex="1" parent="21"><mxGeometry y="26" width="186" height="26" as="geometry"/></mxCell><mxCell id="24" value="&lt;&lt;Constructor&gt;&gt; Headers.GameBoard()&#10;getGrid(): int[][]&#10;+ setGrid(x:int, y:int, val:int):" style="text;strokeColor=#66B2FF;fillColor=none;align=left;verticalAlign=top;spacingLeft=4;spacingRight=4;overflow=hidden;rotatable=0;points=[[0,0.5],[1,0.5]];portConstraint=eastwest;fontColor=#000000;" vertex="1" parent="21"><mxGeometry y="52" width="186" height="71" as="geometry"/></mxCell><mxCell id="40" style="edgeStyle=orthogonalEdgeStyle;html=1;exitX=0.5;exitY=0;exitDx=0;exitDy=0;fontColor=#000000;endArrow=none;endFill=0;strokeColor=#66B2FF;strokeWidth=1;" edge="1" parent="1" source="25"><mxGeometry relative="1" as="geometry"><mxPoint x="-273.96278211805566" y="436.5184733072915" as="targetPoint"/></mxGeometry></mxCell><mxCell id="25" value="Headers.Ship" style="swimlane;fontStyle=1;align=center;verticalAlign=top;childLayout=stackLayout;horizontal=1;startSize=26;horizontalStack=0;resizeParent=1;resizeParentMax=0;resizeLast=0;collapsible=1;marginBottom=0;fontColor=#ffffff;fillColor=#1ba1e2;strokeColor=#006EAF;" vertex="1" parent="1"><mxGeometry x="-113" y="529" width="166" height="240" as="geometry"/></mxCell><mxCell id="26" value="- length: int&#10;- width: int&#10;- name: String&#10;- isSunk: boolean" style="text;strokeColor=#66B2FF;fillColor=none;align=left;verticalAlign=top;spacingLeft=4;spacingRight=4;overflow=hidden;rotatable=0;points=[[0,0.5],[1,0.5]];portConstraint=eastwest;fontColor=#000000;" vertex="1" parent="25"><mxGeometry y="26" width="166" height="73" as="geometry"/></mxCell><mxCell id="27" value="&lt;&lt;Constructor&gt;&gt; Headers.Ship(l, w, n)&#10;+ getLength(): int&#10;+ setLength(l:int)&#10;+ getWidth(): int&#10;+ setWidth(w:int)&#10;+ getName(): String&#10;+ setName(s: String)&#10;+ getIsSunk(): boolean&#10;+ setIsSunk(b: boolean)" style="text;strokeColor=#66B2FF;fillColor=none;align=left;verticalAlign=top;spacingLeft=4;spacingRight=4;overflow=hidden;rotatable=0;points=[[0,0.5],[1,0.5]];portConstraint=eastwest;fontColor=#000000;" vertex="1" parent="25"><mxGeometry y="99" width="166" height="141" as="geometry"/></mxCell><mxCell id="41" style="edgeStyle=orthogonalEdgeStyle;html=1;exitX=0.5;exitY=0;exitDx=0;exitDy=0;fontColor=#000000;endArrow=none;endFill=0;strokeColor=#66B2FF;strokeWidth=1;" edge="1" parent="1" source="30"><mxGeometry relative="1" as="geometry"><mxPoint x="-275.44437662760424" y="436.5184733072915" as="targetPoint"/></mxGeometry></mxCell><mxCell id="30" value="Headers.Player" style="swimlane;fontStyle=1;align=center;verticalAlign=top;childLayout=stackLayout;horizontal=1;startSize=26;horizontalStack=0;resizeParent=1;resizeParentMax=0;resizeLast=0;collapsible=1;marginBottom=0;fontColor=#ffffff;fillColor=#1ba1e2;strokeColor=#006EAF;" vertex="1" parent="1"><mxGeometry x="121" y="529" width="186" height="123" as="geometry"/></mxCell><mxCell id="31" value="- name: String" style="text;strokeColor=#66B2FF;fillColor=none;align=left;verticalAlign=top;spacingLeft=4;spacingRight=4;overflow=hidden;rotatable=0;points=[[0,0.5],[1,0.5]];portConstraint=eastwest;fontColor=#000000;" vertex="1" parent="30"><mxGeometry y="26" width="186" height="26" as="geometry"/></mxCell><mxCell id="32" value="&lt;&lt;Constructor&gt;&gt; Headers.Player()&#10;+ getName(): String&#10;+ setName(s: String)" style="text;strokeColor=#66B2FF;fillColor=none;align=left;verticalAlign=top;spacingLeft=4;spacingRight=4;overflow=hidden;rotatable=0;points=[[0,0.5],[1,0.5]];portConstraint=eastwest;fontColor=#000000;" vertex="1" parent="30"><mxGeometry y="52" width="186" height="71" as="geometry"/></mxCell></root></mxGraphModel></diagram></mxfile>